<svg width="77" height="43" viewBox="0 0 77 43" fill="none" xmlns="http://www.w3.org/2000/svg">
<g filter="url(#filter0_d_2005_12)">
<path d="M33.9326 30.7979C33.9597 30.8024 37.1219 31.3244 41.1992 31.8457C29.5668 37.8869 33.9326 30.7979 33.9326 30.7979ZM49.206 25.1357C70.6831 34.7092 52.4542 33.2847 41.1992 31.8457C41.7507 31.5593 42.3401 31.2471 42.9658 30.8994C46.793 28.7727 48.5961 26.8307 49.206 25.1357ZM49.4472 0.246094C49.1191 0.99603 48.8261 1.65238 48.5683 2.21484C48.3105 2.77728 48.0878 3.25785 47.9003 3.65625C47.6894 4.1015 47.5136 4.50004 47.373 4.85156C47.2558 5.10936 47.1034 5.46103 46.916 5.90625C46.7285 6.30467 46.494 6.83212 46.2128 7.48828C45.955 8.12107 45.6151 8.94148 45.1933 9.94922C44.9824 9.08207 44.7245 8.32029 44.4199 7.66406C44.1152 7.00788 43.787 6.43355 43.4355 5.94141C43.084 5.44931 42.7089 5.05074 42.3105 4.74609C41.9356 4.41806 41.5604 4.14839 41.1855 3.9375C40.3184 3.46886 39.4041 3.21093 38.4433 3.16406C37.1779 3.2344 36.1815 3.44535 35.455 3.79688C34.7521 4.12497 34.2362 4.51179 33.9081 4.95703C33.5801 5.37885 33.4042 5.82429 33.3808 6.29297C33.3574 6.7382 33.416 7.11331 33.5566 7.41797C33.6737 7.69918 34.0841 8.02742 34.787 8.40234C35.5135 8.7773 36.3809 9.211 37.3886 9.70312C38.4198 10.1718 39.5215 10.711 40.6933 11.3203C41.8651 11.9062 42.9434 12.5626 43.9277 13.2891C44.9354 13.9921 45.7793 14.7657 46.4589 15.6094C47.162 16.4297 47.5488 17.3086 47.6191 18.2461C47.6596 18.9355 47.6722 19.5858 47.6581 20.1973C48.945 21.4194 49.9393 23.0981 49.206 25.1357C48.3834 24.7691 47.5032 24.3849 46.5615 23.9854C45.9977 24.644 45.1318 25.1689 43.9628 25.5586C42.791 25.957 41.1618 26.2031 39.0761 26.2969C36.92 26.3906 35.1502 26.2734 33.7675 25.9453C32.3849 25.6172 31.2596 25.1718 30.3925 24.6094C29.5489 24.0469 28.9159 23.4257 28.4941 22.7461C28.0957 22.0665 27.8027 21.4218 27.6152 20.8125C27.4277 20.1797 27.2988 19.6406 27.2285 19.1953C27.1581 18.7266 27.0409 18.4453 26.8769 18.3516C26.6895 18.2344 26.5018 18.1289 26.3144 18.0352C26.1504 17.9415 25.9744 17.8593 25.787 17.7891C25.5997 17.6954 25.4119 17.6132 25.2245 17.543L28.5234 17.0098C-26.8179 -3.13622 26.8079 12.7284 41.0048 16.9863C40.9039 16.7662 40.7888 16.553 40.6581 16.3477C40.33 15.8087 39.9432 15.3632 39.498 15.0117C39.0995 14.7305 38.4783 14.4609 37.6347 14.2031C36.8145 13.9453 35.8885 13.664 34.8574 13.3594C33.8497 13.0547 32.8064 12.7031 31.7285 12.3047C30.6739 11.9063 29.7127 11.414 28.8456 10.8281C28.002 10.2422 27.3221 9.55069 26.8066 8.75391C26.3145 7.95708 26.1269 6.99599 26.2441 5.87109C26.3378 4.91026 26.6426 4.11325 27.1581 3.48047C27.6971 2.82431 28.3653 2.30858 29.162 1.93359C29.9822 1.53521 30.8849 1.24219 31.8691 1.05469C32.8768 0.867213 33.8966 0.761738 34.9277 0.738281C35.9822 0.691413 37.0137 0.703151 38.0214 0.773438C39.0525 0.843738 39.9786 0.925801 40.7988 1.01953C41.6189 1.11326 42.3106 1.20705 42.873 1.30078C43.4584 1.37103 43.8219 1.41795 43.9628 1.44141C44.5721 1.48827 45.1817 1.47652 45.791 1.40625C46.3299 1.35938 46.9161 1.25385 47.5488 1.08984C48.2049 0.902375 48.8379 0.621001 49.4472 0.246094ZM59.9238 0C60.7439 0 61.4824 0.140725 62.1386 0.421875C62.8182 0.67964 63.4395 0.972729 64.0019 1.30078C64.5877 1.62884 65.1387 1.93364 65.6542 2.21484C66.1697 2.47259 66.6973 2.6015 67.2363 2.60156C67.658 2.57813 68.1388 2.51949 68.6777 2.42578C69.1463 2.33205 69.6856 2.19135 70.2949 2.00391C70.9276 1.793 71.6309 1.4882 72.4042 1.08984C71.6309 1.83975 70.9979 2.4727 70.5058 2.98828C70.0371 3.48038 69.6737 3.89067 69.416 4.21875C69.1114 4.59365 68.8886 4.88676 68.748 5.09766L68.1152 6.25781C67.8574 6.72655 67.5057 7.35947 67.0605 8.15625C66.6152 8.92967 66.0526 9.94932 65.373 11.2148C65.373 9.59766 65.2089 8.34375 64.8808 7.45312C64.5761 6.56256 64.2362 5.88279 63.8613 5.41406C63.416 4.87512 62.912 4.53514 62.3495 4.39453C61.8341 4.32432 61.3182 4.41804 60.8027 4.67578C60.2872 4.91016 59.7713 5.26182 59.2558 5.73047C58.7637 6.19918 58.2831 6.76182 57.8144 7.41797C57.3691 8.05072 56.9589 8.71882 56.5839 9.42188C56.2324 10.1249 55.9394 10.8399 55.705 11.5664C55.4707 12.2695 55.3183 12.9258 55.248 13.5352C55.1777 14.0742 55.166 14.7071 55.2128 15.4336C55.2597 16.1367 55.3652 16.8633 55.5292 17.6133C55.6933 18.3398 55.9043 19.0547 56.162 19.7578C56.4198 20.4609 56.7363 21.0938 57.1113 21.6562C57.5096 22.1952 57.9551 22.6407 58.4472 22.9922C58.9393 23.3202 59.5021 23.4726 60.1347 23.4492C60.8377 23.4024 61.5293 23.1913 62.2089 22.8164C62.7948 22.5118 63.3926 22.0429 64.0019 21.4102C64.6112 20.7539 65.1386 19.8281 65.5839 18.6328L70.787 19.582C69.2871 21.4101 67.8222 22.7813 66.3925 23.6953C64.9864 24.6093 63.7206 25.2539 62.5956 25.6289C61.2833 26.0507 60.0408 26.25 58.8691 26.2266C57.3927 26.0625 56.0096 25.6171 54.7206 24.8906C53.4317 24.1641 52.3182 23.2851 51.3808 22.2539C50.4668 21.1993 49.7519 20.0507 49.2363 18.8086C48.7207 17.5665 48.498 16.3476 48.5683 15.1523C48.6152 14.3555 48.7793 13.4296 49.0605 12.375C49.3417 11.2969 49.7168 10.1953 50.1855 9.07031C50.6776 7.94538 51.2637 6.84369 51.9433 5.76562C52.6229 4.68759 53.3731 3.72651 54.1933 2.88281C55.0135 2.01572 55.9044 1.3242 56.8652 0.808594C57.8494 0.269602 58.8692 7.05065e-05 59.9238 0ZM33.1601 18.7148C33.0877 18.8936 33.0322 19.0655 32.9941 19.2305C32.9472 19.5585 33.0528 19.9689 33.3105 20.4609C33.5683 20.9531 33.92 21.4337 34.3652 21.9023C34.8338 22.3476 35.3731 22.7227 35.9824 23.0273C36.5916 23.332 37.2247 23.4609 37.8808 23.4141C38.701 23.3438 39.3691 23.1444 39.8847 22.8164C40.3398 22.5061 40.6939 22.1314 40.9482 21.6934C38.6202 20.7732 36.0311 19.782 33.1601 18.7148Z" fill="#F5F5F5"/>
</g>
<defs>
<filter id="filter0_d_2005_12" x="0" y="0" width="76.4042" height="42.2836" filterUnits="userSpaceOnUse" color-interpolation-filters="sRGB">
<feFlood flood-opacity="0" result="BackgroundImageFix"/>
<feColorMatrix in="SourceAlpha" type="matrix" values="0 0 0 0 0 0 0 0 0 0 0 0 0 0 0 0 0 0 127 0" result="hardAlpha"/>
<feOffset dy="4"/>
<feGaussianBlur stdDeviation="2"/>
<feComposite in2="hardAlpha" operator="out"/>
<feColorMatrix type="matrix" values="0 0 0 0 0 0 0 0 0 0 0 0 0 0 0 0 0 0 0.25 0"/>
<feBlend mode="normal" in2="BackgroundImageFix" result="effect1_dropShadow_2005_12"/>
<feBlend mode="normal" in="SourceGraphic" in2="effect1_dropShadow_2005_12" result="shape"/>
</filter>
</defs>
</svg>
