<svg width="29" height="34" viewBox="0 0 29 34" fill="none" xmlns="http://www.w3.org/2000/svg">
<path d="M3.69141 24.2188C3.66016 24.9297 2.79688 25.3633 1.10156 25.5195C1.03906 25.6445 1.03906 25.8281 1.10156 26.0703C2.57812 26.0234 3.625 26 4.24219 26C5.21875 26 6.33203 26.0234 7.58203 26.0703C7.64453 25.8281 7.64453 25.6445 7.58203 25.5195C5.87109 25.3633 5.00781 24.9297 4.99219 24.2188C4.91406 21.7891 4.875 19.6719 4.875 17.8672C4.875 15.3984 4.90625 13.2148 4.96875 11.3164H5.08594L10.8047 25.707H10.9219L16.2656 11.5977H16.3711C16.4492 13.9492 16.4883 16.0391 16.4883 17.8672C16.4883 20.4062 16.4492 22.5742 16.3711 24.3711C16.3555 24.5742 16.2617 24.75 16.0898 24.8984C15.9258 25.0391 15.6797 25.1523 15.3516 25.2383C15.0234 25.3164 14.7461 25.3711 14.5195 25.4023C14.293 25.4336 14.0039 25.4648 13.6523 25.4961C13.5898 25.6211 13.5898 25.8047 13.6523 26.0469C14.9805 26 16.3398 25.9766 17.7305 25.9766C19.3945 25.9766 20.9961 26 22.5352 26.0469C22.5977 25.9062 22.5977 25.7227 22.5352 25.4961C19.9414 25.3398 18.6367 24.9727 18.6211 24.3945C18.5273 21.9414 18.4805 19.4766 18.4805 17C18.4805 14.6016 18.5117 12.418 18.5742 10.4492C18.5898 9.87109 19.8945 9.50391 22.4883 9.34766C22.5508 9.12109 22.5508 8.9375 22.4883 8.79688C20.9492 8.84375 18.9023 8.86719 16.3477 8.86719L11.3555 21.8984L6.55078 8.86719C4.64453 8.86719 2.95703 8.83594 1.48828 8.77344C1.41016 8.92969 1.41016 9.07812 1.48828 9.21875C2.41797 9.35156 3.02344 9.54688 3.30469 9.80469C3.59375 10.0547 3.74609 10.6367 3.76172 11.5508C3.81641 13.4727 3.84375 15.2891 3.84375 17C3.84375 19.3672 3.79297 21.7734 3.69141 24.2188ZM3.21094 24.2188C3.3125 21.7578 3.36328 19.3516 3.36328 17C3.36328 15.2891 3.33594 13.4727 3.28125 11.5508C3.26562 10.832 3.125 10.3711 2.85938 10.168C2.60156 9.95703 2.03906 9.79297 1.17188 9.67578C0.953125 9.19922 0.960938 8.73047 1.19531 8.26953C2.99219 8.34766 5.32812 8.38672 8.20312 8.38672L12.0469 18.6523L16.0078 8.38672C18.1016 8.38672 20.4141 8.35547 22.9453 8.29297C23.1016 8.80078 23.1172 9.30469 22.9922 9.80469C21.2656 9.97656 20.3945 10.207 20.3789 10.4961C20.3086 11.9648 20.2734 14.1328 20.2734 17C20.2734 19.9609 20.3242 22.4102 20.4258 24.3477C20.4414 24.6367 21.3125 24.8672 23.0391 25.0391C23.1641 25.5391 23.1484 26.043 22.9922 26.5508C20.4609 26.4883 18.9883 26.457 18.5742 26.457C17.9492 26.457 16.1992 26.4883 13.3242 26.5508C13.1289 26.0039 13.1289 25.5 13.3242 25.0391C15.0195 24.8672 15.875 24.6445 15.8906 24.3711C15.9688 22.543 16.0078 20.375 16.0078 17.8672C16.0078 15.9141 16 14.4805 15.9844 13.5664L11.25 26.1875H10.4648L5.35547 13.3086V17.8672C5.35547 19.6719 5.39453 21.7891 5.47266 24.2188C5.48828 24.6406 6.34375 24.9219 8.03906 25.0625C8.23438 25.5312 8.23438 26.0352 8.03906 26.5742C5.70312 26.4805 3.27734 26.4805 0.761719 26.5742C0.574219 26.0352 0.574219 25.5312 0.761719 25.0625C2.37891 24.9062 3.19531 24.625 3.21094 24.2188Z" fill="black"/>
<g filter="url(#filter0_g_2001_6)">
<rect x="20" y="4" width="5" height="26" fill="black" fill-opacity="0.3"/>
</g>
<defs>
<filter id="filter0_g_2001_6" x="16" y="0" width="13" height="34" filterUnits="userSpaceOnUse" color-interpolation-filters="sRGB">
<feFlood flood-opacity="0" result="BackgroundImageFix"/>
<feBlend mode="normal" in="SourceGraphic" in2="BackgroundImageFix" result="shape"/>
<feTurbulence type="fractalNoise" baseFrequency="2 2" numOctaves="3" seed="4883" />
<feDisplacementMap in="shape" scale="8" xChannelSelector="R" yChannelSelector="G" result="displacedImage" width="100%" height="100%" />
<feMerge result="effect1_texture_2001_6">
<feMergeNode in="displacedImage"/>
</feMerge>
</filter>
</defs>
</svg>
